<?xml version="1.0" standalone="no"?>
<!DOCTYPE svg PUBLIC "-//W3C//DTD SVG 20010904//EN"
 "http://www.w3.org/TR/2001/REC-SVG-20010904/DTD/svg10.dtd">
<svg version="1.0" xmlns="http://www.w3.org/2000/svg"
 width="1372.000000pt" height="1372.000000pt" viewBox="0 0 1372.000000 1372.000000"
 preserveAspectRatio="xMidYMid meet">
<metadata>
Created by potrace 1.11, written by Peter Selinger 2001-2013
</metadata>
<g transform="translate(0.000000,1372.000000) scale(0.100000,-0.100000)"
fill="#000000" stroke="none">
<path d="M9225 13709 c-371 -51 -740 -212 -1050 -459 -114 -92 -415 -396 -519
-525 -338 -422 -468 -779 -545 -1495 -47 -434 -53 -565 -56 -1170 -2 -489 -5
-600 -18 -676 -35 -196 -80 -287 -156 -318 -56 -22 -78 -20 -140 10 -61 31
-92 73 -118 159 -16 55 -18 122 -19 775 -1 766 -4 824 -55 1190 -80 568 -176
868 -387 1202 -181 287 -512 652 -758 834 -229 170 -487 280 -784 337 -170 32
-500 31 -685 -2 -438 -78 -837 -274 -1131 -554 -121 -116 -218 -240 -304 -392
-188 -329 -406 -613 -617 -802 -141 -127 -235 -198 -434 -329 -194 -127 -324
-230 -420 -330 -258 -270 -456 -626 -549 -989 -57 -221 -65 -290 -64 -550 0
-222 2 -250 27 -366 70 -330 198 -571 421 -795 104 -104 147 -138 311 -246
538 -354 1019 -559 1590 -677 487 -101 967 -128 1700 -96 503 22 683 9 762
-53 56 -43 44 -125 -29 -199 -97 -98 -195 -118 -568 -110 -146 3 -434 18 -640
33 -323 23 -436 27 -820 28 -644 0 -956 -31 -1325 -135 -641 -181 -1175 -599
-1439 -1126 -128 -256 -185 -514 -186 -830 0 -347 70 -642 225 -953 141 -281
323 -492 560 -650 396 -265 715 -629 1055 -1205 213 -361 248 -417 328 -525
104 -141 315 -352 437 -438 539 -380 1156 -374 1800 17 261 158 467 337 614
529 237 313 482 813 656 1342 131 399 178 650 225 1205 33 398 67 559 151 726
47 94 85 129 140 129 22 0 53 -7 68 -14 42 -22 89 -81 96 -120 4 -19 0 -121
-9 -228 -85 -1016 -46 -2172 104 -3093 104 -641 270 -1216 480 -1663 l53 -112
76 0 c125 0 1153 39 1158 43 2 3 -25 51 -60 108 -425 688 -803 1615 -1023
2506 -178 726 -263 1480 -235 2095 11 229 12 234 41 295 69 140 255 212 314
121 18 -28 36 -129 81 -467 58 -428 101 -661 187 -1011 171 -698 367 -1142
688 -1560 88 -114 371 -400 490 -494 293 -233 613 -396 898 -457 136 -28 366
-36 497 -15 262 40 507 146 739 320 271 203 471 434 710 819 344 555 520 778
997 1262 307 312 382 412 508 675 142 299 216 606 228 955 21 609 -186 1154
-567 1490 -153 135 -422 311 -635 415 -316 154 -616 220 -1006 220 -209 0
-337 -9 -1174 -85 -1048 -95 -1095 -98 -1432 -99 l-301 -1 -25 23 c-35 33 -42
81 -22 150 29 99 65 132 185 171 184 61 457 87 1170 116 855 34 1194 72 1605
180 714 187 1345 610 1688 1130 411 625 369 1445 -111 2125 -85 121 -294 331
-387 388 -39 24 -128 75 -199 113 -262 141 -434 268 -611 450 -180 186 -285
339 -418 609 -140 285 -217 401 -371 558 -268 276 -598 453 -996 537 -111 24
-152 27 -360 30 -129 2 -266 -1 -305 -6z m1112 -1744 c92 -97 169 -179 171
-184 1 -4 -155 -160 -348 -346 l-351 -338 29 -31 c41 -45 515 -540 583 -610
l57 -59 354 342 353 341 177 -182 c97 -101 176 -186 175 -189 -1 -3 -401 -389
-889 -857 l-888 -852 -175 182 c-96 100 -175 185 -175 188 0 3 162 161 360
349 199 189 359 347 358 352 -7 18 -653 684 -664 684 -6 0 -146 -128 -310
-285 -165 -157 -326 -311 -360 -343 l-61 -57 -177 184 -177 185 887 850 c487
468 890 851 894 851 5 0 84 -79 177 -175z m-6031 -957 c494 -458 899 -835 899
-840 0 -4 -76 -90 -170 -192 l-170 -185 -40 38 c-22 21 -173 161 -335 311
-162 150 -311 288 -331 307 l-36 34 -324 -351 c-178 -193 -324 -355 -324 -360
0 -5 163 -160 363 -346 199 -185 362 -339 362 -343 0 -8 -328 -365 -339 -369
-10 -3 -1806 1657 -1806 1669 0 5 76 92 170 194 l169 185 46 -43 c25 -24 135
-126 245 -227 110 -102 252 -233 316 -292 l116 -108 324 350 c178 193 325 354
327 358 1 5 -157 156 -353 336 -195 180 -355 331 -355 336 0 10 331 370 340
370 4 0 411 -374 906 -832z m6569 -5672 c479 -402 900 -755 936 -786 l66 -57
-165 -196 -164 -196 -375 314 c-207 173 -379 312 -384 309 -4 -2 -134 -154
-287 -337 -153 -183 -291 -346 -305 -363 l-27 -32 372 -312 c205 -171 374
-314 376 -319 5 -14 -320 -391 -332 -384 -17 11 -1817 1522 -1850 1553 l-29
28 163 195 164 195 85 -72 c510 -430 668 -563 678 -569 8 -5 114 115 304 340
160 192 300 357 311 369 19 21 18 21 -354 335 -204 173 -379 319 -387 325 -13
10 11 43 149 207 92 110 168 193 174 189 6 -3 403 -334 881 -736z m-7041 466
c92 -100 166 -186 164 -191 -2 -4 -158 -148 -348 -320 -190 -173 -355 -323
-368 -336 l-23 -22 322 -354 c178 -195 326 -354 330 -354 4 0 172 150 373 333
201 182 369 332 374 332 11 0 337 -358 337 -371 0 -9 -1804 -1659 -1815 -1659
-6 0 -333 358 -338 370 -2 4 158 155 355 335 197 181 357 332 355 337 -3 11
-635 706 -643 707 -4 1 -562 -506 -700 -636 l-27 -25 -171 188 c-94 103 -171
190 -170 193 1 10 1814 1660 1820 1658 3 -1 81 -84 173 -185z"/>
<path d="M10345 460 c-83 -26 -123 -135 -71 -197 21 -25 42 -35 113 -52 108
-27 133 -42 133 -80 0 -39 -28 -61 -86 -67 -65 -7 -115 18 -129 63 -8 29 -14
33 -42 33 -31 0 -32 -1 -27 -32 14 -75 67 -118 156 -125 111 -9 198 49 198
132 0 72 -42 108 -159 135 -97 24 -111 32 -111 70 0 81 153 90 183 10 10 -25
17 -30 45 -30 30 0 33 2 27 23 -16 56 -30 78 -59 97 -38 23 -128 33 -171 20z"/>
<path d="M10953 461 c-103 -26 -163 -132 -149 -262 6 -62 31 -123 63 -151 51
-46 144 -61 210 -33 48 20 71 41 94 87 28 55 25 78 -9 78 -23 0 -32 -8 -50
-46 -54 -111 -198 -88 -232 37 -24 86 8 191 65 217 46 21 110 15 144 -14 17
-14 31 -32 31 -40 0 -9 12 -14 35 -14 41 0 43 10 12 64 -36 63 -132 98 -214
77z"/>
<path d="M9650 289 c0 -158 2 -174 22 -210 42 -75 151 -101 238 -56 80 41 85
53 88 258 l3 179 -35 0 -36 0 0 -160 c0 -177 -6 -201 -55 -225 -39 -18 -52
-19 -94 -4 -53 19 -61 48 -61 229 l0 160 -35 0 -35 0 0 -171z"/>
<path d="M8934 425 c-8 -32 -27 -47 -72 -54 -31 -5 -37 -10 -37 -31 0 -23 4
-25 48 -28 l47 -3 0 -150 0 -149 35 0 35 0 0 220 0 220 -25 0 c-18 0 -26 -7
-31 -25z"/>
<path d="M9223 439 c-73 -22 -112 -130 -63 -174 20 -18 20 -18 -6 -46 -34 -35
-42 -94 -19 -142 32 -68 141 -98 215 -59 81 43 93 164 22 218 -13 9 -13 12 1
17 25 9 38 72 24 115 -19 58 -103 93 -174 71z m104 -76 c31 -42 1 -93 -54 -93
-63 0 -94 59 -52 101 17 17 29 20 58 15 20 -3 42 -13 48 -23z m3 -173 c29 -29
27 -94 -2 -114 -55 -39 -138 -1 -138 63 0 60 96 95 140 51z"/>
<path d="M12005 435 c-72 -26 -100 -87 -100 -215 1 -151 56 -226 159 -217 41
4 55 10 82 40 18 19 38 55 44 79 18 64 9 206 -15 248 -39 65 -102 90 -170 65z
m76 -55 c35 -19 52 -69 52 -155 0 -93 -21 -152 -58 -161 -65 -16 -97 25 -103
136 -8 139 39 217 109 180z"/>
<path d="M11570 405 l0 -35 110 0 110 0 -34 -47 c-44 -63 -90 -155 -110 -222
-24 -81 -22 -91 18 -91 31 0 34 2 40 41 11 71 65 194 116 267 28 40 50 82 50
97 l0 25 -150 0 -150 0 0 -35z"/>
<path d="M12240 405 l0 -35 109 0 109 0 -42 -63 c-49 -73 -102 -195 -112 -255
l-7 -42 35 0 c33 0 36 2 42 40 11 71 58 180 112 261 30 44 54 91 54 105 l0 24
-150 0 -150 0 0 -35z"/>
<path d="M10090 50 c0 -39 1 -40 35 -40 34 0 35 1 35 40 0 39 -1 40 -35 40
-34 0 -35 -1 -35 -40z"/>
<path d="M10660 50 c0 -39 1 -40 35 -40 34 0 35 1 35 40 0 39 -1 40 -35 40
-34 0 -35 -1 -35 -40z"/>
<path d="M11260 50 c0 -39 1 -40 35 -40 34 0 35 1 35 40 0 39 -1 40 -35 40
-34 0 -35 -1 -35 -40z"/>
</g>
</svg>
